<svg width="29" height="29" viewBox="0 0 29 29" fill="none" xmlns="http://www.w3.org/2000/svg">
<path d="M24.1667 10.875H13.2917C11.957 10.875 10.875 11.957 10.875 13.2917V24.1667C10.875 25.5014 11.957 26.5833 13.2917 26.5833H24.1667C25.5014 26.5833 26.5833 25.5014 26.5833 24.1667V13.2917C26.5833 11.957 25.5014 10.875 24.1667 10.875Z" stroke="black" stroke-width="2" stroke-linecap="round" stroke-linejoin="round"/>
<path d="M6.04169 18.1251H4.83335C4.19241 18.1251 3.57773 17.8705 3.12451 17.4173C2.6713 16.964 2.41669 16.3494 2.41669 15.7084V4.83341C2.41669 4.19247 2.6713 3.57779 3.12451 3.12457C3.57773 2.67136 4.19241 2.41675 4.83335 2.41675H15.7084C16.3493 2.41675 16.964 2.67136 17.4172 3.12457C17.8704 3.57779 18.125 4.19247 18.125 4.83341V6.04175" stroke="black" stroke-width="2" stroke-linecap="round" stroke-linejoin="round"/>
</svg>
