<svg width="29" height="29" viewBox="0 0 29 29" fill="none" xmlns="http://www.w3.org/2000/svg">
<path d="M24.1667 10.875H13.2917C11.957 10.875 10.875 11.957 10.875 13.2917V24.1667C10.875 25.5014 11.957 26.5833 13.2917 26.5833H24.1667C25.5014 26.5833 26.5833 25.5014 26.5833 24.1667V13.2917C26.5833 11.957 25.5014 10.875 24.1667 10.875Z" fill="#4E4C4C" stroke="#4E4C4C" stroke-width="2" stroke-linecap="round" stroke-linejoin="round"/>
<path d="M6.04175 18.125H4.83341C4.19247 18.125 3.57779 17.8704 3.12457 17.4172C2.67136 16.964 2.41675 16.3493 2.41675 15.7084V4.83335C2.41675 4.19241 2.67136 3.57773 3.12457 3.12451C3.57779 2.6713 4.19247 2.41669 4.83341 2.41669H15.7084C16.3494 2.41669 16.964 2.6713 17.4173 3.12451C17.8705 3.57773 18.1251 4.19241 18.1251 4.83335V6.04169" stroke="black" stroke-width="2" stroke-linecap="round" stroke-linejoin="round"/>
</svg>
