<svg width="29" height="29" viewBox="0 0 29 29" fill="none" xmlns="http://www.w3.org/2000/svg">
<path d="M25.1816 5.57043C24.5645 4.95297 23.8317 4.46316 23.0252 4.12899C22.2187 3.79481 21.3542 3.6228 20.4812 3.6228C19.6082 3.6228 18.7438 3.79481 17.9373 4.12899C17.1307 4.46316 16.398 4.95297 15.7808 5.57043L14.5 6.85126L13.2191 5.57043C11.9725 4.3238 10.2817 3.62345 8.51873 3.62345C6.75573 3.62345 5.06494 4.3238 3.81831 5.57043C2.57169 6.81705 1.87134 8.50784 1.87134 10.2708C1.87134 12.0338 2.57169 13.7246 3.81831 14.9713L5.09915 16.2521L14.5 25.6529L23.9008 16.2521L25.1816 14.9713C25.7991 14.3541 26.2889 13.6213 26.6231 12.8148C26.9573 12.0083 27.1293 11.1438 27.1293 10.2708C27.1293 9.39784 26.9573 8.53338 26.6231 7.72687C26.2889 6.92036 25.7991 6.18759 25.1816 5.57043V5.57043Z" stroke="black" stroke-width="2" stroke-linecap="round" stroke-linejoin="round"/>
</svg>
