<svg width="21" height="21" viewBox="0 0 21 21" fill="none" xmlns="http://www.w3.org/2000/svg">
<path d="M10.5 1.925C13.3 1.925 13.65 1.925 14.7875 2.0125C17.675 2.1 18.9875 3.5 19.075 6.3C19.1625 7.4375 19.1625 7.7 19.1625 10.5C19.1625 13.3 19.1625 13.65 19.075 14.7C18.9875 17.5 17.5875 18.9 14.7875 18.9875C13.65 19.075 13.3875 19.075 10.5 19.075C7.7 19.075 7.35 19.075 6.3 18.9875C3.4125 18.9 2.1 17.5 2.0125 14.7C1.925 13.5625 1.925 13.3 1.925 10.5C1.925 7.7 1.925 7.35 2.0125 6.3C2.1 3.5 3.5 2.1 6.3 2.0125C7.35 1.925 7.7 1.925 10.5 1.925ZM10.5 0C7.6125 0 7.2625 0 6.2125 0.0875C2.3625 0.2625 0.2625 2.3625 0.0875 6.2125C0 7.2625 0 7.6125 0 10.5C0 13.3875 0 13.7375 0.0875 14.7875C0.2625 18.6375 2.3625 20.7375 6.2125 20.9125C7.2625 21 7.6125 21 10.5 21C13.3875 21 13.7375 21 14.7875 20.9125C18.6375 20.7375 20.7375 18.6375 20.9125 14.7875C21 13.7375 21 13.3875 21 10.5C21 7.6125 21 7.2625 20.9125 6.2125C20.7375 2.3625 18.6375 0.2625 14.7875 0.0875C13.7375 0 13.3875 0 10.5 0ZM10.5 5.075C7.525 5.075 5.075 7.525 5.075 10.5C5.075 13.475 7.525 15.925 10.5 15.925C13.475 15.925 15.925 13.475 15.925 10.5C15.925 7.525 13.475 5.075 10.5 5.075ZM10.5 14C8.575 14 7 12.425 7 10.5C7 8.575 8.575 7 10.5 7C12.425 7 14 8.575 14 10.5C14 12.425 12.425 14 10.5 14ZM16.1 3.675C15.4 3.675 14.875 4.2 14.875 4.9C14.875 5.6 15.4 6.125 16.1 6.125C16.8 6.125 17.325 5.6 17.325 4.9C17.325 4.2 16.8 3.675 16.1 3.675Z" fill="white"/>
</svg>
