<svg width="66" height="15" viewBox="0 0 66 15" fill="none" xmlns="http://www.w3.org/2000/svg">
<path d="M23.3631 10.9633C23.9898 10.3299 24.3031 9.74559 24.3031 9.21035C24.3031 8.72418 24.2072 8.37404 24.0154 8.15995C23.8237 7.94362 23.6307 7.83546 23.4367 7.83546C23.1513 7.83546 22.9361 7.9347 22.7911 8.13319C22.6461 8.32944 22.5703 8.60821 22.5636 8.9695V10.0801H21.918V8.9695C21.9113 8.60821 21.8355 8.31829 21.6905 8.09973C21.5478 7.87895 21.3616 7.76855 21.1318 7.76855C20.8598 7.76855 20.6613 7.88229 20.5364 8.10977C20.4115 8.33502 20.3491 8.63609 20.3491 9.01298V10.1069L19.6967 10.1035V9.01298C19.6967 8.63163 19.612 8.34059 19.4425 8.13988C19.273 7.93693 19.0678 7.83546 18.827 7.83546C18.633 7.83546 18.4423 7.94585 18.2549 8.16664C18.0698 8.38519 17.9773 8.78216 17.9773 9.35754C17.9773 10.2072 18.2817 10.8741 18.8905 11.358C19.5016 11.8397 20.4951 12.0806 21.8711 12.0806H22.9885V12.6928H21.7106C20.3346 12.6928 19.2563 12.3995 18.4757 11.813C17.6974 11.2242 17.3082 10.4124 17.3082 9.37762C17.3082 8.65281 17.461 8.12761 17.7665 7.80201C18.0721 7.4764 18.4255 7.3136 18.827 7.3136C19.3421 7.3136 19.7402 7.59014 20.0212 8.14322C20.1707 7.54554 20.5409 7.2467 21.1318 7.2467C21.6582 7.2467 22.0284 7.54554 22.2425 8.14322C22.5235 7.59014 22.9216 7.3136 23.4367 7.3136C23.8382 7.3136 24.1916 7.46525 24.4972 7.76855C24.8027 8.07186 24.9555 8.55246 24.9555 9.21035C24.9555 9.77904 24.7179 10.3633 24.2429 10.9633H23.3631ZM28.4613 9.02302C28.4613 8.71303 28.362 8.42868 28.1635 8.16998C27.9673 7.90905 27.7276 7.77859 27.4443 7.77859C27.2035 7.77859 26.9927 7.89121 26.8121 8.11646C26.6314 8.33948 26.5411 8.92043 26.5411 9.85933C26.5411 10.9588 27.0418 11.8955 28.0431 12.6693H27.1065C26.2969 11.949 25.8921 11.0123 25.8921 9.85933C25.8921 8.75317 26.0382 8.04286 26.3304 7.72841C26.6247 7.41396 26.9961 7.25673 27.4443 7.25673C28.0242 7.25673 28.4657 7.57899 28.769 8.22351C29.0746 7.57899 29.5184 7.25673 30.1004 7.25673C30.5465 7.25673 30.9167 7.41396 31.2111 7.72841C31.5054 8.04286 31.6526 8.75317 31.6526 9.85933C31.6526 11.0123 31.2467 11.949 30.435 12.6693H29.4983C30.4996 11.8709 31.0003 10.9343 31.0003 9.85933C31.0003 8.92489 30.91 8.34505 30.7293 8.1198C30.5487 7.89233 30.3391 7.77859 30.1004 7.77859C29.815 7.77859 29.5752 7.90571 29.3812 8.15995C29.1872 8.41196 29.0868 8.6963 29.0801 9.01298L29.0768 10.5351H28.4613V9.02302ZM36.0282 10.97C36.0282 11.5163 35.8754 11.9423 35.5699 12.2478C35.2644 12.5511 34.844 12.7028 34.3088 12.7028C33.7936 12.7028 33.3888 12.5233 33.0944 12.1642C32.8023 11.8029 32.6562 11.3268 32.6562 10.7358V7.31695H33.2717V10.7358C33.2717 11.1617 33.3665 11.5096 33.5561 11.7795C33.7479 12.0471 33.9988 12.1809 34.3088 12.1809C34.6366 12.1809 34.8964 12.0739 35.0882 11.8598C35.28 11.6457 35.3759 11.3491 35.3759 10.97C35.3803 10.5261 35.2131 10.1526 34.8741 9.84929C34.5373 9.54599 34.3667 9.27837 34.3623 9.04644C34.3489 8.82342 34.3545 8.62159 34.379 8.44095H35.0146C34.9812 8.61044 34.9611 8.77213 34.9544 8.92601C34.9923 9.06205 35.1785 9.30068 35.513 9.64189C35.8476 9.98087 36.0193 10.4236 36.0282 10.97ZM38.9319 7.25339C38.865 7.7574 39.098 8.25138 39.631 8.73533C40.1663 9.21704 40.4339 9.82365 40.4339 10.5551C40.4339 11.2086 40.27 11.7304 39.9421 12.1207C39.6143 12.5088 39.2162 12.7028 38.7479 12.7028C38.2127 12.7028 37.7811 12.4943 37.4533 12.0772C37.1277 11.658 36.9649 11.0993 36.9649 10.4013C36.9649 9.94185 37.044 9.59283 37.2024 9.3542L37.8079 9.58837C37.6808 9.88275 37.6172 10.1849 37.6172 10.4949C37.6172 10.9967 37.7231 11.4026 37.935 11.7126C38.1491 12.0226 38.4201 12.1776 38.7479 12.1776C39.0088 12.1776 39.2463 12.0371 39.4604 11.7561C39.6745 11.4729 39.7816 11.1038 39.7816 10.6488C39.7816 10.0065 39.524 9.46125 39.0088 9.01298C38.4959 8.56472 38.2394 7.97707 38.2394 7.25004L38.9319 7.25339ZM43.9431 10.602C43.9431 10.2028 43.8438 9.88498 43.6453 9.64858C43.4491 9.40995 43.2316 9.29064 42.993 9.29064C42.6629 9.29064 42.4187 9.41887 42.2604 9.67534C42.1043 9.92958 42.0251 10.2429 42.0229 10.6154C42.0229 11.3223 42.5124 11.9958 43.4914 12.6359H42.5247C41.7575 12.1163 41.3739 11.4494 41.3739 10.6354C41.3739 10.2853 41.4408 9.92177 41.5746 9.54488C41.84 8.87806 42.2336 8.32944 42.7555 7.89902C43.2773 7.4686 44.0769 7.25339 45.154 7.25339V7.77524C44.6233 7.77524 44.1103 7.86557 43.6152 8.04621C43.1201 8.22685 42.7131 8.52904 42.3942 8.95277C42.6328 8.83011 42.8324 8.76878 42.993 8.76878C43.5282 8.76878 43.9475 9.09104 44.2508 9.73556C44.5563 9.09104 44.9778 8.76878 45.5153 8.76878C46.006 8.76878 46.3985 8.94273 46.6928 9.29064C46.9872 9.63854 47.1344 10.0868 47.1344 10.6354C47.1344 11.4494 46.7397 12.1163 45.9502 12.6359H45.0102C45.9915 11.9713 46.4821 11.3045 46.4821 10.6354C46.4821 10.2585 46.3918 9.94073 46.2111 9.68203C46.0305 9.4211 45.7985 9.29064 45.5153 9.29064C45.2745 9.29064 45.057 9.40661 44.863 9.63854C44.669 9.86825 44.5686 10.1749 44.5619 10.5585L44.5586 11.3647L43.9431 11.3714V10.602ZM48.7401 12.6359C48.2941 11.726 48.0711 10.767 48.0711 9.75897C48.0711 9.02525 48.2227 8.42422 48.526 7.95589C48.8316 7.48755 49.2531 7.25339 49.7905 7.25339C50.3235 7.25339 50.7439 7.48755 51.0517 7.95589C51.3595 8.42422 51.5133 9.02525 51.5133 9.75897C51.5133 10.767 51.2914 11.726 50.8476 12.6359H50.105C50.6001 11.5253 50.8476 10.525 50.8476 9.6352C50.8476 9.12003 50.7517 8.68181 50.5599 8.32052C50.3704 7.95923 50.1117 7.77859 49.7838 7.77859C49.4516 7.77859 49.1917 7.95812 49.0044 8.31717C48.8193 8.674 48.7267 9.11334 48.7267 9.6352C48.7267 10.525 48.9788 11.5253 49.4828 12.6359H48.7401ZM55.832 10.8428C55.832 11.4985 55.6603 11.9713 55.3169 12.2612C54.9734 12.5511 54.5776 12.6961 54.1293 12.6961C53.6365 12.6961 53.2228 12.55 52.8882 12.2579C52.5537 11.9635 52.3864 11.5643 52.3864 11.0603C52.3864 10.7949 52.479 10.5183 52.6641 10.2307L53.2796 10.4581C53.1302 10.6455 53.0555 10.8462 53.0555 11.0603C53.0555 11.4216 53.1748 11.7003 53.4134 11.8966C53.6521 12.0906 53.8974 12.1876 54.1494 12.1876C54.388 12.1876 54.6211 12.0906 54.8485 11.8966C55.0782 11.7003 55.1931 11.3491 55.1931 10.8428V8.51789C55.1931 8.02502 54.9879 7.77859 54.5776 7.77859C54.2497 7.77859 54.0858 8.04621 54.0858 8.58145L54.0892 9.29064L53.5205 9.29398V8.58145C53.5205 8.04621 53.1425 7.77859 52.3864 7.77859V7.25673C53.1046 7.25673 53.5283 7.49647 53.6576 7.97596C53.8204 7.49647 54.1271 7.25673 54.5776 7.25673C55.4139 7.25673 55.832 7.67712 55.832 8.51789V10.8428ZM58.622 8.76878C59.0591 8.76878 59.4449 8.94273 59.7794 9.29064V8.61825C59.7794 8.32832 59.6835 8.10977 59.4917 7.96258C59.2999 7.81316 59.0725 7.73845 58.8093 7.73845C58.4525 7.73845 58.1871 7.78863 58.0131 7.88898C57.8414 7.98711 57.7556 8.10531 57.7556 8.24358H57.0631C57.0631 7.88452 57.217 7.63028 57.5247 7.48086C57.8347 7.32921 58.215 7.25227 58.6655 7.25004C59.252 7.25227 59.6902 7.38385 59.9801 7.64478C60.2701 7.90348 60.415 8.22797 60.415 8.61825V10.7023C60.415 11.3825 60.2667 11.8865 59.9701 12.2144C59.6735 12.54 59.2464 12.7028 58.6889 12.7028C58.0845 12.7028 57.624 12.5288 57.3073 12.1809C56.9928 11.8308 56.8356 11.3379 56.8356 10.7023C56.8356 10.1091 56.9928 9.63854 57.3073 9.29064C57.624 8.94273 58.0622 8.76878 58.622 8.76878ZM58.622 9.29064C58.2696 9.29064 57.9953 9.41218 57.799 9.65527C57.6028 9.89613 57.5047 10.2385 57.5047 10.6823C57.5047 11.1595 57.6017 11.5286 57.7957 11.7895C57.992 12.0505 58.2897 12.1809 58.6889 12.1809C59.039 12.1809 59.3077 12.0627 59.4951 11.8263C59.6846 11.5899 59.7794 11.2153 59.7794 10.7023C59.7794 10.1916 59.6735 9.82922 59.4616 9.61513C59.252 9.3988 58.9721 9.29064 58.622 9.29064ZM62.0876 12.6359C61.6416 11.726 61.4186 10.767 61.4186 9.75897C61.4186 9.02525 61.5702 8.42422 61.8735 7.95589C62.1791 7.48755 62.6006 7.25339 63.138 7.25339C63.6711 7.25339 64.0914 7.48755 64.3992 7.95589C64.707 8.42422 64.8608 9.02525 64.8608 9.75897C64.8608 10.767 64.6389 11.726 64.1951 12.6359H63.4525C63.9476 11.5253 64.1951 10.525 64.1951 9.6352C64.1951 9.12003 64.0992 8.68181 63.9075 8.32052C63.7179 7.95923 63.4592 7.77859 63.1314 7.77859C62.7991 7.77859 62.5393 7.95812 62.3519 8.31717C62.1668 8.674 62.0743 9.11334 62.0743 9.6352C62.0743 10.525 62.3263 11.5253 62.8303 12.6359H62.0876Z" fill="white"/>
<path d="M13.7524 7.52583L6.49164 7.49323" stroke="white" stroke-width="0.0354389" stroke-miterlimit="10"/>
<path d="M6.47894 10.4545L13.6865 10.5055" stroke="white" stroke-width="0.0354389" stroke-miterlimit="10"/>
<path d="M13.7546 10.1795L9.46436 10.1589" stroke="white" stroke-width="0.0354389" stroke-miterlimit="10"/>
<path d="M6.31876 3.23344L1.63657 2.02852L1.63019 2.00159L6.31805 3.21005L6.31876 3.23344Z" fill="#FCFCFC"/>
<path d="M6.31875 3.56446L1.63159 2.36379V2.33331L6.31804 3.54249L6.31875 3.56446Z" fill="white"/>
<path d="M10.7011 5.24V6.61716H12.3313V5.24H10.7011ZM13.9119 5.38176C14.2563 4.75907 14.437 4.05914 14.437 3.34756C14.437 2.63598 14.2563 1.93605 13.9119 1.31336L9.01496 0H1.41118C1.31074 0.0856751 1.22934 0.191417 1.17222 0.310432C1.11509 0.429448 1.0835 0.559104 1.07948 0.691059C1.07948 0.710196 1.07948 0.730039 1.07948 0.749885C1.08992 0.871182 1.12452 0.989165 1.18125 1.09689C1.23797 1.20461 1.31567 1.29991 1.40976 1.37716L6.30601 2.68981H12.9487C13.0851 3.56027 12.9486 4.4516 12.5581 5.24141H12.3902V6.61857H13.3038C13.6542 7.33037 13.8418 8.11125 13.853 8.90455C13.8641 9.69786 13.6986 10.4837 13.3683 11.2051H6.84468C6.51266 10.4862 6.34072 9.70371 6.34072 8.91183C6.34072 8.11994 6.51266 7.3375 6.84468 6.61857H10.6451V5.24H6.3776L1.42536 3.92805C1.14893 4.23212 -0.00282989 5.56462 5.22497e-06 7.60732C0.00354912 9.63868 1.14681 10.9641 1.42536 11.2696C3.05271 11.7067 4.6796 12.1437 6.30601 12.5808H13.9119C14.2185 12.2292 14.4804 11.8409 14.6916 11.4248C15.059 10.7068 15.2605 9.91549 15.2813 9.10922C15.3323 7.06298 14.1905 5.69574 13.9119 5.37963V5.38176Z" fill="white"/>
<path d="M12.3341 4.57019V7.44996L11.5467 6.66251L10.7011 7.44996V4.57019H12.3341Z" fill="white"/>
<path d="M12.8381 4.57092H6.31024" stroke="white" stroke-width="0.0354389" stroke-miterlimit="10"/>
</svg>
