<svg width="104" height="24" viewBox="0 0 104 24" fill="none" xmlns="http://www.w3.org/2000/svg">
<path d="M34.6666 17.7996C35.621 16.835 36.0982 15.9451 36.0982 15.1299C36.0982 14.3895 35.9521 13.8563 35.66 13.5302C35.3679 13.2008 35.0741 13.036 34.7787 13.036C34.3439 13.036 34.0161 13.1872 33.7954 13.4895C33.5746 13.7883 33.4591 14.2129 33.4489 14.7631V16.4546H32.4657V14.7631C32.4555 14.2129 32.34 13.7714 32.1192 13.4385C31.9019 13.1023 31.6183 12.9341 31.2684 12.9341C30.854 12.9341 30.5518 13.1074 30.3616 13.4538C30.1714 13.7968 30.0763 14.2554 30.0763 14.8294V16.4953L29.0828 16.4902V14.8294C29.0828 14.2486 28.9537 13.8053 28.6956 13.4997C28.4375 13.1906 28.125 13.036 27.7582 13.036C27.4627 13.036 27.1723 13.2042 26.887 13.5404C26.6051 13.8733 26.4641 14.4778 26.4641 15.3541C26.4641 16.6482 26.9277 17.6637 27.855 18.4007C28.7856 19.1344 30.2987 19.5012 32.3943 19.5012H34.096V20.4335H32.1498C30.0542 20.4335 28.412 19.9869 27.2232 19.0936C26.0379 18.197 25.4452 16.9606 25.4452 15.3847C25.4452 14.2808 25.6778 13.481 26.1432 12.9851C26.6085 12.4892 27.1468 12.2413 27.7582 12.2413C28.5428 12.2413 29.149 12.6624 29.577 13.5047C29.8045 12.5945 30.3684 12.1394 31.2684 12.1394C32.07 12.1394 32.6338 12.5945 32.9599 13.5047C33.3878 12.6624 33.9941 12.2413 34.7787 12.2413C35.39 12.2413 35.9284 12.4722 36.3937 12.9341C36.859 13.3961 37.0916 14.128 37.0916 15.1299C37.0916 15.996 36.7299 16.8859 36.0065 17.7996H34.6666ZM42.4309 14.8446C42.4309 14.3725 42.2797 13.9395 41.9774 13.5455C41.6786 13.1481 41.3134 12.9494 40.8821 12.9494C40.5153 12.9494 40.1943 13.1209 39.9192 13.464C39.6441 13.8036 39.5065 14.6884 39.5065 16.1183C39.5065 17.7928 40.269 19.2193 41.794 20.3979H40.3675C39.1346 19.3008 38.5182 17.8743 38.5182 16.1183C38.5182 14.4337 38.7406 13.3519 39.1856 12.873C39.6339 12.3941 40.1994 12.1547 40.8821 12.1547C41.7652 12.1547 42.4377 12.6454 42.8996 13.627C43.3649 12.6454 44.0408 12.1547 44.9273 12.1547C45.6066 12.1547 46.1704 12.3941 46.6187 12.873C47.067 13.3519 47.2912 14.4337 47.2912 16.1183C47.2912 17.8743 46.673 19.3008 45.4367 20.3979H44.0102C45.5352 19.1819 46.2977 17.7554 46.2977 16.1183C46.2977 14.6952 46.1602 13.8121 45.8851 13.4691C45.61 13.1226 45.2907 12.9494 44.9273 12.9494C44.4925 12.9494 44.1274 13.143 43.8319 13.5302C43.5364 13.914 43.3836 14.3471 43.3734 14.8294L43.3683 17.1474H42.4309V14.8446ZM53.9551 17.8098C53.9551 18.6419 53.7224 19.2906 53.2571 19.7559C52.7918 20.2178 52.1515 20.4488 51.3364 20.4488C50.5518 20.4488 49.9353 20.1754 49.487 19.6286C49.0421 19.0783 48.8196 18.3532 48.8196 17.4531V12.2464H49.757V17.4531C49.757 18.1018 49.9014 18.6317 50.1901 19.0427C50.4822 19.4502 50.8643 19.654 51.3364 19.654C51.8357 19.654 52.2314 19.491 52.5234 19.1649C52.8155 18.8389 52.9616 18.3872 52.9616 17.8098C52.9684 17.1339 52.7136 16.565 52.1974 16.103C51.6845 15.6411 51.4247 15.2335 51.4179 14.8803C51.3975 14.5407 51.406 14.2333 51.4434 13.9582H52.4114C52.3604 14.2163 52.3298 14.4625 52.3197 14.6969C52.3774 14.9041 52.661 15.2675 53.1705 15.7872C53.6799 16.3034 53.9415 16.9776 53.9551 17.8098ZM58.3772 12.1496C58.2753 12.9172 58.6303 13.6695 59.442 14.4065C60.2572 15.1401 60.6648 16.064 60.6648 17.178C60.6648 18.1732 60.4151 18.9679 59.9158 19.5623C59.4166 20.1533 58.8103 20.4488 58.097 20.4488C57.2819 20.4488 56.6247 20.1312 56.1254 19.4961C55.6295 18.8576 55.3816 18.0067 55.3816 16.9437C55.3816 16.244 55.5021 15.7124 55.7433 15.349L56.6654 15.7056C56.4718 16.154 56.375 16.6142 56.375 17.0863C56.375 17.8505 56.5364 18.4687 56.859 18.9408C57.1851 19.4129 57.5978 19.6489 58.097 19.6489C58.4944 19.6489 58.8561 19.435 59.1822 19.007C59.5083 18.5757 59.6713 18.0135 59.6713 17.3207C59.6713 16.3425 59.279 15.5121 58.4944 14.8294C57.7132 14.1467 57.3226 13.2517 57.3226 12.1445L58.3772 12.1496ZM66.0091 17.2493C66.0091 16.6414 65.8579 16.1574 65.5557 15.7974C65.2568 15.4339 64.9256 15.2522 64.5622 15.2522C64.0595 15.2522 63.6876 15.4475 63.4465 15.8381C63.2087 16.2253 63.0881 16.7025 63.0847 17.2697C63.0847 18.3464 63.8303 19.3721 65.3213 20.3469H63.8489C62.6806 19.5555 62.0964 18.54 62.0964 17.3003C62.0964 16.767 62.1983 16.2134 62.402 15.6394C62.8062 14.6239 63.4057 13.7883 64.2005 13.1328C64.9952 12.4773 66.2129 12.1496 67.8534 12.1496V12.9443C67.045 12.9443 66.2638 13.0819 65.5098 13.357C64.7558 13.6321 64.1359 14.0923 63.6502 14.7377C64.0137 14.5509 64.3176 14.4575 64.5622 14.4575C65.3773 14.4575 66.0159 14.9482 66.4778 15.9298C66.9431 14.9482 67.585 14.4575 68.4036 14.4575C69.1508 14.4575 69.7486 14.7224 70.1969 15.2522C70.6452 15.7821 70.8694 16.4648 70.8694 17.3003C70.8694 18.54 70.2682 19.5555 69.0659 20.3469H67.6343C69.1287 19.3348 69.8759 18.3192 69.8759 17.3003C69.8759 16.7263 69.7384 16.2423 69.4633 15.8483C69.1882 15.4509 68.8349 15.2522 68.4036 15.2522C68.0368 15.2522 67.7056 15.4288 67.4101 15.7821C67.1146 16.1319 66.9618 16.5989 66.9516 17.1831L66.9465 18.4109L66.0091 18.4211V17.2493ZM73.3149 20.3469C72.6356 18.9612 72.2959 17.5007 72.2959 15.9655C72.2959 14.848 72.5269 13.9327 72.9888 13.2194C73.4541 12.5062 74.096 12.1496 74.9146 12.1496C75.7263 12.1496 76.3666 12.5062 76.8353 13.2194C77.304 13.9327 77.5384 14.848 77.5384 15.9655C77.5384 17.5007 77.2004 18.9612 76.5245 20.3469H75.3935C76.1475 18.6555 76.5245 17.1322 76.5245 15.777C76.5245 14.9924 76.3785 14.325 76.0864 13.7748C75.7977 13.2245 75.4037 12.9494 74.9044 12.9494C74.3983 12.9494 74.0026 13.2228 73.7173 13.7697C73.4354 14.3131 73.2945 14.9822 73.2945 15.777C73.2945 17.1322 73.6783 18.6555 74.4459 20.3469H73.3149ZM84.1156 17.6162C84.1156 18.6147 83.8541 19.3348 83.331 19.7763C82.808 20.2178 82.2051 20.4386 81.5224 20.4386C80.7718 20.4386 80.1417 20.2161 79.6323 19.7712C79.1228 19.3229 78.8681 18.7149 78.8681 17.9473C78.8681 17.5431 79.009 17.122 79.2909 16.6838L80.2283 17.0303C80.0008 17.3156 79.887 17.6213 79.887 17.9473C79.887 18.4975 80.0687 18.9221 80.4321 19.221C80.7956 19.5165 81.1692 19.6642 81.553 19.6642C81.9164 19.6642 82.2713 19.5165 82.6178 19.221C82.9676 18.9221 83.1425 18.3872 83.1425 17.6162V14.0753C83.1425 13.3247 82.83 12.9494 82.2051 12.9494C81.7058 12.9494 81.4562 13.357 81.4562 14.1721L81.4613 15.2522L80.5952 15.2573V14.1721C80.5952 13.357 80.0195 12.9494 78.8681 12.9494V12.1547C79.9617 12.1547 80.6071 12.5198 80.804 13.25C81.052 12.5198 81.519 12.1547 82.2051 12.1547C83.4788 12.1547 84.1156 12.7949 84.1156 14.0753V17.6162ZM88.3646 14.4575C89.0303 14.4575 89.6179 14.7224 90.1273 15.2522V14.2282C90.1273 13.7867 89.9813 13.4538 89.6892 13.2296C89.3971 13.0021 89.0506 12.8883 88.6499 12.8883C88.1064 12.8883 87.7023 12.9647 87.4373 13.1175C87.1758 13.267 87.045 13.447 87.045 13.6576H85.9904C85.9904 13.1108 86.2248 12.7236 86.6935 12.496C87.1656 12.265 87.7447 12.1479 88.4308 12.1445C89.3241 12.1479 89.9915 12.3483 90.433 12.7456C90.8745 13.1396 91.0953 13.6338 91.0953 14.2282V17.4022C91.0953 18.4381 90.8694 19.2057 90.4177 19.705C89.966 20.2009 89.3156 20.4488 88.4665 20.4488C87.546 20.4488 86.8446 20.1839 86.3624 19.654C85.8835 19.1208 85.644 18.3702 85.644 17.4022C85.644 16.4987 85.8835 15.7821 86.3624 15.2522C86.8446 14.7224 87.5121 14.4575 88.3646 14.4575ZM88.3646 15.2522C87.8279 15.2522 87.4102 15.4373 87.1113 15.8075C86.8124 16.1744 86.6629 16.6957 86.6629 17.3716C86.6629 18.0985 86.8107 18.6606 87.1062 19.058C87.4051 19.4553 87.8585 19.654 88.4665 19.654C88.9997 19.654 89.409 19.474 89.6943 19.114C89.983 18.754 90.1273 18.1834 90.1273 17.4022C90.1273 16.6244 89.966 16.0725 89.6433 15.7464C89.3241 15.417 88.8978 15.2522 88.3646 15.2522ZM93.6427 20.3469C92.9634 18.9612 92.6237 17.5007 92.6237 15.9655C92.6237 14.848 92.8547 13.9327 93.3166 13.2194C93.7819 12.5062 94.4238 12.1496 95.2424 12.1496C96.0541 12.1496 96.6944 12.5062 97.1631 13.2194C97.6318 13.9327 97.8661 14.848 97.8661 15.9655C97.8661 17.5007 97.5282 18.9612 96.8523 20.3469H95.7213C96.4753 18.6555 96.8523 17.1322 96.8523 15.777C96.8523 14.9924 96.7063 14.325 96.4142 13.7748C96.1255 13.2245 95.7315 12.9494 95.2322 12.9494C94.7261 12.9494 94.3304 13.2228 94.0451 13.7697C93.7632 14.3131 93.6223 14.9822 93.6223 15.777C93.6223 17.1322 94.0061 18.6555 94.7737 20.3469H93.6427Z" fill="#553D8F"/>
<path d="M13.7289 0H2.14746V2.09815H13.5815C13.5815 2.10088 13.5815 2.10497 13.5801 2.1077C16.1151 2.74656 18.65 3.38542 21.185 4.02292C21.185 3.34857 21.185 2.67422 21.185 1.99986C18.7005 1.3337 16.2147 0.667529 13.7289 0Z" fill="#A5A1C9"/>
<path d="M9.60467 7.98439C7.23351 7.34826 4.86372 6.71213 2.49256 6.07599C2.48709 4.77916 2.483 3.48232 2.47754 2.18549C4.8528 2.82298 7.22942 3.46048 9.60467 4.09661C9.60467 5.39345 9.60467 6.68892 9.60467 7.98439Z" fill="#CFD1E2"/>
<path d="M20.472 4.0816H9.60449V8.1796H20.472V4.0816Z" fill="#DCDDDF"/>
<path d="M21.4686 10.0238H9.55273V17.3107H21.4686V10.0238Z" fill="#DCDDDF"/>
<path d="M20.9434 11.4654L9.88477 11.4162" stroke="#CFD1E2" stroke-width="0.0682545" stroke-miterlimit="10"/>
<path d="M9.86523 15.9251L20.8433 16.003" stroke="#CFD1E2" stroke-width="0.0682545" stroke-miterlimit="10"/>
<path d="M20.9459 15.5074L14.4126 15.476" stroke="#CFD1E2" stroke-width="0.0682545" stroke-miterlimit="10"/>
<path d="M9.60467 4.098C7.11884 3.43184 4.63301 2.76431 2.14718 2.09815C2.09121 2.05037 1.62026 1.62992 1.66121 0.963753C1.69534 0.397241 2.0762 0.060064 2.14718 0C4.63301 0.666164 7.11884 1.3337 9.60467 1.99986C9.54051 2.04081 9.09549 2.33157 9.02451 2.88853C8.96444 3.35539 9.19105 3.82635 9.60467 4.098Z" fill="#A39DC5"/>
<path d="M19.5508 6.96466H9.60205" stroke="#CFD1E2" stroke-width="0.0682545" stroke-miterlimit="10"/>
<path d="M9.59668 5.02763C7.22416 4.39559 4.853 3.76355 2.48047 3.13152C2.48047 3.10558 2.48047 3.07965 2.48047 3.05371C5.15605 3.77038 7.51356 4.40242 9.60351 4.9621C9.60215 4.98395 9.59941 5.00579 9.59668 5.02763Z" fill="#DCDDDF"/>
<path d="M9.60235 5.61185C7.22982 4.97982 4.85593 4.34641 2.4834 3.71438C2.4834 3.68844 2.4834 3.6625 2.4834 3.63657C5.16034 4.3546 7.51922 4.98527 9.61054 5.54633C9.60781 5.56817 9.60508 5.59001 9.60235 5.61185Z" fill="#DCDDDF"/>
<path d="M9.60479 19.1659C7.11896 18.4997 4.63313 17.8322 2.1473 17.166C1.72822 16.7005 0.00547322 14.6829 1.28597e-05 11.5883C-0.0054475 8.47722 1.72958 6.44732 2.1473 5.98456C4.63313 6.65072 7.11896 7.31689 9.60479 7.98305C9.11199 8.57004 7.70458 10.4034 7.56807 13.1404C7.40426 16.4125 9.17478 18.6512 9.60479 19.1659Z" fill="#A39DC5"/>
<path d="M21.186 8.19737C21.4604 7.70321 21.9341 6.69167 21.9819 5.32658C22.0392 3.70213 21.4618 2.50084 21.186 2.00122C20.4626 2.00122 19.7391 2.00122 19.0156 2.00122C15.8786 2.00122 12.7416 2.00122 9.60462 2.00122C9.20602 2.15957 8.92481 2.51586 8.88113 2.92539C8.82789 3.41409 9.12138 3.8987 9.60462 4.098H19.7199C19.7773 4.46521 19.8087 4.86654 19.7964 5.29791C19.7595 6.50056 19.3978 7.43292 19.1248 7.98305H11.7724C11.7724 7.98305 11.7738 7.98168 11.7738 7.98032C11.0503 7.98032 10.3268 7.98032 9.60326 7.98032C9.17872 8.46766 7.45597 10.5535 7.50239 13.6973C7.54607 16.6828 9.15688 18.6499 9.60326 19.1618V19.1645H21.1847C21.642 18.6458 23.205 16.7483 23.2746 13.8775C23.3497 10.761 21.6106 8.67924 21.186 8.19737ZM20.3588 17.0677H10.4209C10.0005 16.1504 9.6524 14.9709 9.6524 13.5731C9.6524 12.1766 9.99913 10.9985 10.4196 10.0826H20.2619C20.7014 10.9849 21.0809 12.167 21.0987 13.5786C21.1164 14.9709 20.7752 16.149 20.3588 17.0677Z" fill="#553D8F"/>
<path d="M18.7836 11.3507C18.3836 10.9507 17.9836 10.5508 17.5837 10.1508C17.155 10.5508 16.725 10.9507 16.2964 11.3507V6.96466H18.7836V11.3507Z" fill="#A39DC5"/>
</svg>
