<svg width="26" height="26" viewBox="0 0 26 26" fill="none" xmlns="http://www.w3.org/2000/svg">
<path d="M24.6667 18.74V22.24C24.668 22.5649 24.6014 22.8865 24.4713 23.1842C24.3411 23.4819 24.1502 23.7492 23.9108 23.9688C23.6713 24.1885 23.3887 24.3557 23.0809 24.4598C22.7731 24.5639 22.4469 24.6026 22.1233 24.5733C18.5333 24.1832 15.0848 22.9565 12.055 20.9917C9.23614 19.2004 6.84623 16.8105 5.055 13.9917C3.08331 10.9481 1.85629 7.48283 1.47334 3.87667C1.44418 3.55405 1.48252 3.22889 1.58592 2.9219C1.68932 2.6149 1.8555 2.33281 2.0739 2.09356C2.29229 1.85431 2.55811 1.66316 2.85443 1.53228C3.15074 1.40139 3.47107 1.33364 3.795 1.33333H7.295C7.86119 1.32776 8.41009 1.52826 8.83939 1.89746C9.26869 2.26665 9.54909 2.77936 9.62834 3.34C9.77606 4.46008 10.05 5.55985 10.445 6.61833C10.602 7.03591 10.6359 7.48973 10.5429 7.92603C10.4498 8.36232 10.2337 8.7628 9.92 9.08L8.43834 10.5617C10.0992 13.4825 12.5175 15.9009 15.4383 17.5617L16.92 16.08C17.2372 15.7663 17.6377 15.5502 18.074 15.4571C18.5103 15.3641 18.9641 15.398 19.3817 15.555C20.4402 15.95 21.5399 16.2239 22.66 16.3717C23.2267 16.4516 23.7443 16.7371 24.1143 17.1737C24.4843 17.6104 24.6809 18.1678 24.6667 18.74Z" stroke="white" stroke-width="2" stroke-linecap="round" stroke-linejoin="round"/>
</svg>
