<svg width="23" height="19" viewBox="0 0 23 19" fill="none" xmlns="http://www.w3.org/2000/svg">
<path d="M7.23329 18.7486C15.9129 18.7486 20.6595 11.5362 20.6595 5.28216C20.6595 5.07724 20.6553 4.87337 20.6459 4.67029C21.5673 4.00229 22.3683 3.16845 23 2.2197C22.1545 2.59647 21.2447 2.85019 20.2902 2.96459C21.2643 2.3787 22.0125 1.45146 22.3654 0.346337C21.4535 0.888668 20.4437 1.28276 19.3691 1.49528C18.5077 0.575391 17.2813 0 15.9244 0C13.3182 0 11.2048 2.11974 11.2048 4.73248C11.2048 5.104 11.2464 5.46503 11.327 5.81163C7.40542 5.61406 3.92781 3.73046 1.60068 0.866891C1.19495 1.56612 0.961353 2.37896 0.961353 3.24559C0.961353 4.88754 1.79452 6.33717 3.06142 7.18543C2.28736 7.16156 1.56014 6.94798 0.924206 6.59325C0.92316 6.61293 0.92316 6.63287 0.92316 6.6536C0.92316 8.94598 2.55 10.8597 4.70893 11.2935C4.31261 11.4018 3.89564 11.4601 3.46505 11.4601C3.16108 11.4601 2.86548 11.4296 2.57799 11.3748C3.17861 13.255 4.92082 14.6235 6.98635 14.6621C5.37102 15.9317 3.33635 16.6882 1.12563 16.6882C0.745015 16.6882 0.369369 16.6664 0 16.6226C2.08829 17.9649 4.56793 18.7486 7.23329 18.7486Z" fill="white"/>
</svg>
