<svg width="176" height="176" viewBox="0 0 176 176" fill="none" xmlns="http://www.w3.org/2000/svg">
<path d="M171.702 33.9152L150.55 25.4496L142.088 4.29439L131.014 15.3648C117.994 7.63839 103.199 3.51999 88 3.51999C41.4199 3.51999 3.52002 41.4198 3.52002 88C3.52002 134.58 41.4199 172.48 88 172.48C134.58 172.48 172.48 134.58 172.48 88C172.48 72.8006 168.362 58.0061 160.635 44.9856L171.702 33.9152ZM145.13 30.8704L159.174 36.4883L150.508 45.151L136.47 39.5296L130.852 25.4883L139.515 16.8221L145.13 30.8704ZM165.44 88C165.44 130.701 130.701 165.44 88 165.44C45.2989 165.44 10.56 130.701 10.56 88C10.56 45.2989 45.2989 10.56 88 10.56C101.334 10.56 114.347 13.9779 125.9 20.4793L122.588 23.7917L129.628 41.3952L125.196 45.8269C115.266 37.0515 102.263 31.68 88 31.68C56.9466 31.68 31.68 56.9465 31.68 88C31.68 119.053 56.9466 144.32 88 144.32C119.053 144.32 144.32 119.053 144.32 88C144.32 73.7369 138.948 60.7341 130.177 50.8006L134.608 46.3689L152.212 53.4089L155.524 50.0966C162.022 61.6528 165.44 74.6662 165.44 88ZM109.12 88C109.12 99.6477 99.6477 109.12 88 109.12C76.3523 109.12 66.88 99.6477 66.88 88C66.88 76.3523 76.3523 66.88 88 66.88C92.5549 66.88 96.7648 68.3443 100.218 70.8048L89.8023 81.2205C89.2215 81.0691 88.6266 80.96 88 80.96C84.1139 80.96 80.96 84.1104 80.96 88C80.96 91.8896 84.1139 95.04 88 95.04C91.8861 95.04 95.04 91.8896 95.04 88C95.04 87.3734 94.9309 86.7785 94.7795 86.1977L105.195 75.7821C107.656 79.2352 109.12 83.4451 109.12 88ZM105.241 65.7817C100.468 62.0717 94.4979 59.84 88 59.84C72.4733 59.84 59.84 72.4733 59.84 88C59.84 103.527 72.4733 116.16 88 116.16C103.527 116.16 116.16 103.527 116.16 88C116.16 81.5021 113.928 75.5321 110.218 70.759L125.203 55.7744C132.704 64.4265 137.28 75.6765 137.28 88C137.28 115.174 115.174 137.28 88 137.28C60.8256 137.28 38.72 115.174 38.72 88C38.72 60.8256 60.8256 38.72 88 38.72C100.32 38.72 111.573 43.296 120.222 50.8006L105.241 65.7817Z" fill="black"/>
</svg>
